<svg width="135" height="59" viewBox="0 0 135 59" fill="none" xmlns="http://www.w3.org/2000/svg">
<path d="M45.2912 36V22.9091H50.3026C51.2486 22.9091 52.0348 23.0582 52.6612 23.3565C53.2919 23.6506 53.7628 24.0533 54.0739 24.5646C54.3892 25.076 54.5469 25.6555 54.5469 26.3033C54.5469 26.8359 54.4446 27.2919 54.2401 27.6712C54.0355 28.0462 53.7607 28.3509 53.4155 28.5852C53.0703 28.8196 52.6847 28.9879 52.2585 29.0902V29.218C52.723 29.2436 53.1683 29.3864 53.5945 29.6463C54.0249 29.902 54.3764 30.2642 54.6491 30.733C54.9219 31.2017 55.0582 31.7685 55.0582 32.4332C55.0582 33.1108 54.8942 33.7202 54.5661 34.2614C54.2379 34.7983 53.7436 35.2223 53.0831 35.5334C52.4226 35.8445 51.5916 36 50.5902 36H45.2912ZM47.6626 34.0185H50.2131C51.0739 34.0185 51.6939 33.8544 52.0732 33.5263C52.4567 33.1939 52.6484 32.7678 52.6484 32.2479C52.6484 31.8601 52.5526 31.5107 52.3608 31.1996C52.169 30.8842 51.8963 30.6371 51.5426 30.4581C51.1889 30.2749 50.767 30.1832 50.277 30.1832H47.6626V34.0185ZM47.6626 28.4766H50.0085C50.4176 28.4766 50.7862 28.402 51.1143 28.2528C51.4425 28.0994 51.7003 27.8842 51.8878 27.6072C52.0795 27.326 52.1754 26.9936 52.1754 26.6101C52.1754 26.103 51.9964 25.6854 51.6385 25.3572C51.2848 25.0291 50.7585 24.8651 50.0597 24.8651H47.6626V28.4766ZM58.9548 36.1982C58.3327 36.1982 57.7723 36.0874 57.2737 35.8658C56.7794 35.6399 56.3874 35.3075 56.0976 34.8686C55.8121 34.4297 55.6693 33.8885 55.6693 33.245C55.6693 32.6911 55.7716 32.233 55.9761 31.8707C56.1807 31.5085 56.4598 31.2188 56.8135 31.0014C57.1672 30.7841 57.5656 30.62 58.0088 30.5092C58.4563 30.3942 58.9186 30.3111 59.3959 30.2599C59.9712 30.2003 60.4378 30.147 60.7957 30.1001C61.1537 30.049 61.4136 29.9723 61.5756 29.87C61.7418 29.7635 61.8249 29.5994 61.8249 29.3778V29.3395C61.8249 28.858 61.6821 28.4851 61.3966 28.2209C61.1111 27.9567 60.6999 27.8246 60.1629 27.8246C59.5962 27.8246 59.1466 27.9482 58.8142 28.1953C58.4861 28.4425 58.2645 28.7344 58.1494 29.071L55.9889 28.7642C56.1594 28.1676 56.4406 27.669 56.8327 27.2685C57.2247 26.8636 57.7041 26.5611 58.2709 26.3608C58.8376 26.1562 59.4641 26.054 60.1501 26.054C60.6232 26.054 61.094 26.1094 61.5628 26.2202C62.0315 26.331 62.4598 26.5142 62.8476 26.7699C63.2354 27.0213 63.5464 27.3643 63.7808 27.799C64.0195 28.2337 64.1388 28.777 64.1388 29.429V36H61.9143V34.6513H61.8376C61.697 34.924 61.4989 35.1797 61.2432 35.4183C60.9918 35.6527 60.6743 35.8423 60.2908 35.9872C59.9115 36.1278 59.4662 36.1982 58.9548 36.1982ZM59.5557 34.4979C60.0202 34.4979 60.4229 34.4062 60.7638 34.223C61.1047 34.0355 61.3668 33.7884 61.55 33.4815C61.7375 33.1747 61.8313 32.8402 61.8313 32.478V31.321C61.7588 31.3807 61.6352 31.4361 61.4605 31.4872C61.2901 31.5384 61.0983 31.5831 60.8852 31.6214C60.6722 31.6598 60.4612 31.6939 60.2524 31.7237C60.0436 31.7536 59.8625 31.7791 59.7091 31.8004C59.3639 31.8473 59.055 31.924 58.7822 32.0305C58.5095 32.1371 58.2943 32.2862 58.1366 32.478C57.979 32.6655 57.9001 32.9084 57.9001 33.2067C57.9001 33.6328 58.0557 33.9545 58.3668 34.1719C58.6778 34.3892 59.0741 34.4979 59.5557 34.4979ZM70.4787 26.1818V27.9716H64.8346V26.1818H70.4787ZM66.228 23.8295H68.5419V33.0469C68.5419 33.358 68.5888 33.5966 68.6826 33.7628C68.7806 33.9247 68.9084 34.0355 69.0661 34.0952C69.2238 34.1548 69.3985 34.1847 69.5902 34.1847C69.7351 34.1847 69.8672 34.174 69.9865 34.1527C70.1101 34.1314 70.2039 34.1122 70.2678 34.0952L70.6577 35.9041C70.5341 35.9467 70.3573 35.9936 70.1272 36.0447C69.9013 36.0959 69.6243 36.1257 69.2962 36.1342C68.7167 36.1513 68.1946 36.0639 67.7301 35.8722C67.2657 35.6761 66.8971 35.3736 66.6243 34.9645C66.3559 34.5554 66.2238 34.044 66.228 33.4304V23.8295ZM76.4272 26.1818V27.9716H70.783V26.1818H76.4272ZM72.1765 23.8295H74.4904V33.0469C74.4904 33.358 74.5373 33.5966 74.631 33.7628C74.729 33.9247 74.8569 34.0355 75.0145 34.0952C75.1722 34.1548 75.3469 34.1847 75.5387 34.1847C75.6836 34.1847 75.8157 34.174 75.935 34.1527C76.0586 34.1314 76.1523 34.1122 76.2162 34.0952L76.6061 35.9041C76.4826 35.9467 76.3057 35.9936 76.0756 36.0447C75.8498 36.0959 75.5728 36.1257 75.2446 36.1342C74.6651 36.1513 74.1431 36.0639 73.6786 35.8722C73.2141 35.6761 72.8455 35.3736 72.5728 34.9645C72.3043 34.5554 72.1722 34.044 72.1765 33.4304V23.8295ZM79.9978 22.9091V36H77.6838V22.9091H79.9978ZM85.8343 36.1918C84.85 36.1918 83.9998 35.9872 83.2839 35.5781C82.5723 35.1648 82.0247 34.581 81.6412 33.8267C81.2576 33.0682 81.0659 32.1754 81.0659 31.1484C81.0659 30.1385 81.2576 29.2521 81.6412 28.4893C82.0289 27.7223 82.5701 27.1257 83.2647 26.6996C83.9593 26.2692 84.7754 26.054 85.7129 26.054C86.318 26.054 86.889 26.152 87.426 26.348C87.9672 26.5398 88.4444 26.8381 88.8578 27.2429C89.2754 27.6477 89.6035 28.1634 89.8422 28.7898C90.0808 29.4119 90.2001 30.1534 90.2001 31.0142V31.7237H82.1525V30.1641H87.9821C87.9778 29.7209 87.8819 29.3267 87.6944 28.9815C87.5069 28.6321 87.2449 28.3572 86.9082 28.157C86.5758 27.9567 86.188 27.8565 85.7449 27.8565C85.2718 27.8565 84.8564 27.9716 84.4984 28.2017C84.1404 28.4276 83.8613 28.7259 83.661 29.0966C83.465 29.4631 83.3649 29.8658 83.3606 30.3047V31.6662C83.3606 32.2372 83.465 32.7273 83.6738 33.1364C83.8826 33.5412 84.1745 33.8523 84.5495 34.0696C84.9245 34.2827 85.3635 34.3892 85.8663 34.3892C86.2029 34.3892 86.5076 34.3423 86.7804 34.2486C87.0531 34.1506 87.2896 34.0078 87.4899 33.8203C87.6902 33.6328 87.8414 33.4006 87.9437 33.1236L90.1042 33.3665C89.9679 33.9375 89.7079 34.4361 89.3244 34.8622C88.9451 35.2841 88.4593 35.6122 87.867 35.8466C87.2747 36.0767 86.5971 36.1918 85.8343 36.1918ZM95.5509 36.1918C94.5708 36.1918 93.7292 35.9766 93.026 35.5462C92.3272 35.1158 91.7881 34.5213 91.4088 33.7628C91.0338 33 90.8463 32.1222 90.8463 31.1293C90.8463 30.1321 91.0381 29.2521 91.4216 28.4893C91.8051 27.7223 92.3463 27.1257 93.0452 26.6996C93.7483 26.2692 94.5793 26.054 95.5381 26.054C96.335 26.054 97.0402 26.201 97.6539 26.495C98.2718 26.7848 98.764 27.196 99.1304 27.7287C99.4969 28.2571 99.7057 28.875 99.7569 29.5824H97.5452C97.4557 29.1094 97.2426 28.7152 96.906 28.3999C96.5736 28.0803 96.1283 27.9205 95.5701 27.9205C95.0971 27.9205 94.6816 28.0483 94.3236 28.304C93.9657 28.5554 93.6865 28.9176 93.4863 29.3906C93.2902 29.8636 93.1922 30.4304 93.1922 31.0909C93.1922 31.7599 93.2902 32.3352 93.4863 32.8168C93.6823 33.294 93.9571 33.6626 94.3108 33.9226C94.6688 34.1783 95.0885 34.3061 95.5701 34.3061C95.911 34.3061 96.2157 34.2422 96.4841 34.1143C96.7569 33.9822 96.9848 33.7926 97.1681 33.5455C97.3513 33.2983 97.477 32.9979 97.5452 32.6442H99.7569C99.7015 33.3388 99.4969 33.9545 99.1432 34.4915C98.7895 35.0241 98.308 35.4418 97.6986 35.7443C97.0892 36.0426 96.3733 36.1918 95.5509 36.1918ZM103.593 36.1982C102.971 36.1982 102.41 36.0874 101.912 35.8658C101.417 35.6399 101.025 35.3075 100.735 34.8686C100.45 34.4297 100.307 33.8885 100.307 33.245C100.307 32.6911 100.409 32.233 100.614 31.8707C100.819 31.5085 101.098 31.2188 101.451 31.0014C101.805 30.7841 102.204 30.62 102.647 30.5092C103.094 30.3942 103.556 30.3111 104.034 30.2599C104.609 30.2003 105.076 30.147 105.434 30.1001C105.792 30.049 106.052 29.9723 106.213 29.87C106.38 29.7635 106.463 29.5994 106.463 29.3778V29.3395C106.463 28.858 106.32 28.4851 106.034 28.2209C105.749 27.9567 105.338 27.8246 104.801 27.8246C104.234 27.8246 103.784 27.9482 103.452 28.1953C103.124 28.4425 102.902 28.7344 102.787 29.071L100.627 28.7642C100.797 28.1676 101.079 27.669 101.471 27.2685C101.863 26.8636 102.342 26.5611 102.909 26.3608C103.476 26.1562 104.102 26.054 104.788 26.054C105.261 26.054 105.732 26.1094 106.201 26.2202C106.669 26.331 107.098 26.5142 107.485 26.7699C107.873 27.0213 108.184 27.3643 108.419 27.799C108.657 28.2337 108.777 28.777 108.777 29.429V36H106.552V34.6513H106.476C106.335 34.924 106.137 35.1797 105.881 35.4183C105.63 35.6527 105.312 35.8423 104.929 35.9872C104.549 36.1278 104.104 36.1982 103.593 36.1982ZM104.194 34.4979C104.658 34.4979 105.061 34.4062 105.402 34.223C105.743 34.0355 106.005 33.7884 106.188 33.4815C106.375 33.1747 106.469 32.8402 106.469 32.478V31.321C106.397 31.3807 106.273 31.4361 106.098 31.4872C105.928 31.5384 105.736 31.5831 105.523 31.6214C105.31 31.6598 105.099 31.6939 104.89 31.7237C104.681 31.7536 104.5 31.7791 104.347 31.8004C104.002 31.8473 103.693 31.924 103.42 32.0305C103.147 32.1371 102.932 32.2862 102.775 32.478C102.617 32.6655 102.538 32.9084 102.538 33.2067C102.538 33.6328 102.694 33.9545 103.005 34.1719C103.316 34.3892 103.712 34.4979 104.194 34.4979ZM110.214 36V26.1818H112.458V27.8182H112.56C112.739 27.2514 113.046 26.8146 113.48 26.5078C113.919 26.1967 114.42 26.0412 114.982 26.0412C115.11 26.0412 115.253 26.0476 115.411 26.0604C115.573 26.0689 115.707 26.0838 115.813 26.1051V28.2337C115.715 28.1996 115.56 28.1697 115.347 28.1442C115.138 28.1143 114.936 28.0994 114.739 28.0994C114.318 28.0994 113.938 28.1911 113.602 28.3743C113.269 28.5533 113.007 28.8026 112.815 29.1222C112.624 29.4418 112.528 29.8104 112.528 30.228V36H110.214ZM119.7 36.1726C118.929 36.1726 118.239 35.9744 117.629 35.5781C117.02 35.1818 116.538 34.6065 116.185 33.8523C115.831 33.098 115.654 32.1818 115.654 31.1037C115.654 30.0128 115.833 29.0923 116.191 28.3423C116.553 27.5881 117.041 27.0192 117.655 26.6357C118.269 26.2479 118.952 26.054 119.707 26.054C120.282 26.054 120.755 26.152 121.126 26.348C121.497 26.5398 121.791 26.772 122.008 27.0447C122.225 27.3132 122.394 27.5668 122.513 27.8054H122.609V22.9091H124.929V36H122.653V34.4531H122.513C122.394 34.6918 122.221 34.9453 121.995 35.2138C121.769 35.478 121.471 35.7038 121.1 35.8913C120.729 36.0788 120.263 36.1726 119.7 36.1726ZM120.346 34.2741C120.836 34.2741 121.254 34.142 121.599 33.8778C121.944 33.6094 122.206 33.2365 122.385 32.7592C122.564 32.282 122.653 31.7259 122.653 31.0909C122.653 30.456 122.564 29.9041 122.385 29.4354C122.21 28.9666 121.95 28.6023 121.605 28.3423C121.264 28.0824 120.845 27.9524 120.346 27.9524C119.83 27.9524 119.4 28.0866 119.055 28.3551C118.71 28.6236 118.45 28.9943 118.275 29.4673C118.1 29.9403 118.013 30.4815 118.013 31.0909C118.013 31.7045 118.1 32.2521 118.275 32.7337C118.454 33.2109 118.716 33.5881 119.061 33.8651C119.411 34.1378 119.839 34.2741 120.346 34.2741Z" fill="white"/>
<path d="M44.9688 48V40H47.6719C48.2995 40 48.8125 40.1133 49.2109 40.3398C49.612 40.5638 49.9089 40.8672 50.1016 41.25C50.2943 41.6328 50.3906 42.0599 50.3906 42.5312C50.3906 43.0026 50.2943 43.431 50.1016 43.8164C49.9115 44.2018 49.6172 44.5091 49.2188 44.7383C48.8203 44.9648 48.3099 45.0781 47.6875 45.0781H45.75V44.2188H47.6563C48.0859 44.2188 48.431 44.1445 48.6914 43.9961C48.9518 43.8477 49.1406 43.6471 49.2578 43.3945C49.3776 43.1393 49.4375 42.8516 49.4375 42.5312C49.4375 42.2109 49.3776 41.9245 49.2578 41.6719C49.1406 41.4193 48.9505 41.2214 48.6875 41.0781C48.4245 40.9323 48.0755 40.8594 47.6406 40.8594H45.9375V48H44.9688ZM52.2906 48V40H54.9938C55.6188 40 56.1318 40.1068 56.5328 40.3203C56.9339 40.5312 57.2307 40.8216 57.4234 41.1914C57.6161 41.5612 57.7125 41.9818 57.7125 42.4531C57.7125 42.9245 57.6161 43.3424 57.4234 43.707C57.2307 44.0716 56.9352 44.3581 56.5367 44.5664C56.1383 44.7721 55.6292 44.875 55.0094 44.875H52.8219V44H54.9781C55.4052 44 55.749 43.9375 56.0094 43.8125C56.2724 43.6875 56.4625 43.5104 56.5797 43.2812C56.6995 43.0495 56.7594 42.7734 56.7594 42.4531C56.7594 42.1328 56.6995 41.8529 56.5797 41.6133C56.4599 41.3737 56.2685 41.1888 56.0055 41.0586C55.7424 40.9258 55.3948 40.8594 54.9625 40.8594H53.2594V48H52.2906ZM56.0563 44.4062L58.025 48H56.9L54.9625 44.4062H56.0563ZM66.4162 44C66.4162 44.8437 66.2639 45.5729 65.9592 46.1875C65.6545 46.8021 65.2365 47.276 64.7053 47.6094C64.174 47.9427 63.5673 48.1094 62.885 48.1094C62.2027 48.1094 61.5959 47.9427 61.0646 47.6094C60.5334 47.276 60.1154 46.8021 59.8107 46.1875C59.5061 45.5729 59.3537 44.8437 59.3537 44C59.3537 43.1562 59.5061 42.4271 59.8107 41.8125C60.1154 41.1979 60.5334 40.724 61.0646 40.3906C61.5959 40.0573 62.2027 39.8906 62.885 39.8906C63.5673 39.8906 64.174 40.0573 64.7053 40.3906C65.2365 40.724 65.6545 41.1979 65.9592 41.8125C66.2639 42.4271 66.4162 43.1562 66.4162 44ZM65.4787 44C65.4787 43.3073 65.3628 42.7227 65.1311 42.2461C64.9019 41.7695 64.5907 41.4089 64.1975 41.1641C63.8068 40.9193 63.3693 40.7969 62.885 40.7969C62.4006 40.7969 61.9618 40.9193 61.5686 41.1641C61.1779 41.4089 60.8667 41.7695 60.635 42.2461C60.4058 42.7227 60.2912 43.3073 60.2912 44C60.2912 44.6927 60.4058 45.2773 60.635 45.7539C60.8667 46.2305 61.1779 46.5911 61.5686 46.8359C61.9618 47.0807 62.4006 47.2031 62.885 47.2031C63.3693 47.2031 63.8068 47.0807 64.1975 46.8359C64.5907 46.5911 64.9019 46.2305 65.1311 45.7539C65.3628 45.2773 65.4787 44.6927 65.4787 44Z" fill="#A3B3FF"/>
<path d="M25 20L15 24.5V31.5C15 38.5 19.5 44.5 25 46C30.5 44.5 35 38.5 35 31.5V24.5L25 20Z" fill="url(#paint0_linear_1_98)" stroke="url(#paint1_linear_1_98)" stroke-width="1.5" stroke-linejoin="round"/>
<path d="M27 27L22 34H25L23 39L28 32H25L27 27Z" fill="white"/>
<defs>
<linearGradient id="paint0_linear_1_98" x1="25" y1="20" x2="25" y2="46" gradientUnits="userSpaceOnUse">
<stop stop-color="#8B5CF6"/>
<stop offset="1" stop-color="#6366F1"/>
</linearGradient>
<linearGradient id="paint1_linear_1_98" x1="25" y1="20" x2="25" y2="46" gradientUnits="userSpaceOnUse">
<stop stop-color="#A78BFA"/>
<stop offset="1" stop-color="#818CF8"/>
</linearGradient>
</defs>
</svg>
